The Station Agent (2003)

Ripped from retail DVD
Spoken language: English & English Director's commentary
Subtitle (Soft): English

IMDB: http://www.imdb.com/title/tt0340377/

When his only friend dies, a man born with dwarfism moves to rural New Jersey to live a life of solitude, only to meet a chatty hot dog vendor and a woman dealing with her own personal loss.

General
Complete name                  : The Station Agent (2003).mp4
Format                         : MPEG-4
Format profile                 : Base Media / Version 2
Codec ID                       : mp42
File size                      : 1.23 GiB
Duration                       : 1h 29mn
Overall bit rate mode          : Variable
Overall bit rate               : 1 962 Kbps
Encoded date                   : UTC 2013-03-16 03:04:11
Tagged date                    : UTC 2013-03-16 03:29:25
Writing application            : HandBrake 0.9.8 2012071700

Video
ID                             : 1
Format                         : AVC
Format/Info                    : Advanced Video Codec
Format profile                 : High@L3.0
Format settings, CABAC         : Yes
Format settings, ReFrames      : 4 frames
Codec ID                       : avc1
Codec ID/Info                  : Advanced Video Coding
Duration                       : 1h 29mn
Bit rate mode                  : Variable
Bit rate                       : 1 182 Kbps
Width                          : 720 pixels
Height                         : 464 pixels
Display aspect ratio           : 1.85:1
Frame rate mode                : Variable
Frame rate                     : 24.000 fps
Minimum frame rate             : 19.965 fps
Maximum frame rate             : 29.970 fps
Color space                    : YUV
Chroma subsampling             : 4:2:0
Bit depth                      : 8 bits
Scan type                      : Progressive
Bits/(Pixel*Frame)             : 0.147
Stream size                    : 757 MiB (60%)
Writing library                : x264 core 120
Encoding settings              : cabac=1 / ref=3 / deblock=1:0:0 / analyse=0x3:0x113 / me=hex / subme=7 / psy=1 / psy_rd=1.00:0.00 / mixed_ref=1 / me_range=16 / chroma_me=1 / trellis=1 / 8x8dct=1 / cqm=0 / deadzone=21,11 / fast_pskip=1 / chroma_qp_offset=-2 / threads=6 / sliced_threads=0 / nr=0 / decimate=1 / interlaced=0 / bluray_compat=0 / constrained_intra=0 / bframes=3 / b_pyramid=2 / b_adapt=2 / b_bias=0 / direct=1 / weightb=1 / open_gop=0 / weightp=2 / keyint=240 / keyint_min=24 / scenecut=40 / intra_refresh=0 / rc_lookahead=50 / rc=crf / mbtree=1 / crf=20.0 / qcomp=0.60 / qpmin=3 / qpmax=69 / qpstep=4 / ip_ratio=1.40 / aq=1:1.00
Encoded date                   : UTC 2013-03-16 03:04:11
Tagged date                    : UTC 2013-03-16 03:29:25
Color primaries                : BT.601 NTSC
Transfer characteristics       : BT.709
Matrix coefficients            : BT.601

Audio #1
ID                             : 2
Format                         : AAC
Format/Info                    : Advanced Audio Codec
Format profile                 : LC
Codec ID                       : 40
Duration                       : 1h 29mn
Bit rate mode                  : Variable
Bit rate                       : 160 Kbps
Maximum bit rate               : 309 Kbps
Channel(s)                     : 2 channels
Channel positions              : Front: L R
Sampling rate                  : 48.0 KHz
Compression mode               : Lossy
Delay relative to video        : 67ms
Stream size                    : 102 MiB (8%)
Language                       : English
Encoded date                   : UTC 2013-03-16 03:04:11
Tagged date                    : UTC 2013-03-16 03:29:25


